<?xml version="1.0" encoding="UTF-8" standalone="no"?>
<!-- Created with Inkscape (http://www.inkscape.org/) -->

<svg
   width="100"
   height="100"
   viewBox="0 0 100 100"
   version="1.1"
   id="svg1"
   inkscape:version="1.4.2 (ebf0e940, 2025-05-08)"
   sodipodi:docname="american_cocker_spaniel.svg"
   xmlns:inkscape="http://www.inkscape.org/namespaces/inkscape"
   xmlns:sodipodi="http://sodipodi.sourceforge.net/DTD/sodipodi-0.dtd"
   xmlns="http://www.w3.org/2000/svg"
   xmlns:svg="http://www.w3.org/2000/svg">
  <sodipodi:namedview
     id="namedview1"
     pagecolor="#505050"
     bordercolor="#eeeeee"
     borderopacity="1"
     inkscape:showpageshadow="0"
     inkscape:pageopacity="0"
     inkscape:pagecheckerboard="0"
     inkscape:deskcolor="#505050"
     inkscape:document-units="mm"
     showgrid="true"
     showguides="false"
     inkscape:lockguides="false"
     inkscape:zoom="7.2649775"
     inkscape:cx="47.419279"
     inkscape:cy="52.030443"
     inkscape:window-width="1064"
     inkscape:window-height="691"
     inkscape:window-x="28"
     inkscape:window-y="75"
     inkscape:window-maximized="0"
     inkscape:current-layer="layer1">
    <inkscape:grid
       id="grid1"
       units="px"
       originx="100"
       originy="100"
       spacingx="1"
       spacingy="1"
       empcolor="#0099e5"
       empopacity="0.30196078"
       color="#0099e5"
       opacity="0.14901961"
       empspacing="5"
       enabled="true"
       visible="true" />
  </sodipodi:namedview>
  <defs
     id="defs1" />
  <g
     inkscape:label="Layer 1"
     inkscape:groupmode="layer"
     id="layer1">
    <path
       style="fill:#ffc378;fill-opacity:1;stroke:#303030;stroke-width:0.5;stroke-linecap:round;stroke-linejoin:round;stroke-dasharray:none;stroke-opacity:1;paint-order:markers stroke fill"
       d="M 29,58 26,74 21,76 23,78 H 30 L 33,76 36,60 35,50 32,47 H 27 Z"
       id="path4"
       sodipodi:nodetypes="ccccccccccc" />
    <path
       style="fill:#ffc378;fill-opacity:1;stroke:#303030;stroke-width:0.5;stroke-linecap:round;stroke-linejoin:round;stroke-dasharray:none;stroke-opacity:1;paint-order:markers stroke fill"
       d="M 64,50.5 62,63.5 66,79 H 70 L 73,78 75,77 71,63 72,56 69,51 Z"
       id="path7"
       sodipodi:nodetypes="cccccccccc" />
    <path
       style="fill:#ffc378;fill-opacity:1;stroke:#303030;stroke-width:0.5;stroke-linecap:round;stroke-linejoin:round;stroke-dasharray:none;stroke-opacity:1;paint-order:markers stroke fill"
       d="M 74,50 H 75 L 78,56 H 76 L 75,52 Z"
       id="path9" />
    <path
       style="fill:#ffc378;fill-opacity:1;stroke:#303030;stroke-width:0.5;stroke-linecap:round;stroke-linejoin:round;stroke-dasharray:none;stroke-opacity:1;paint-order:markers stroke fill"
       d="M 21,40 31,58 75,61 78,58 74,49 29,34 22,35 Z"
       id="path3"
       sodipodi:nodetypes="cccccccc" />
    <path
       style="fill:#ffc378;fill-opacity:1;stroke:#303030;stroke-width:0.5;stroke-linecap:round;stroke-linejoin:round;stroke-dasharray:none;stroke-opacity:1;paint-order:markers stroke fill"
       d="M 30,30 32,36 26,49 22,50 17,45 22,40 25,28 27,27 29,28 Z"
       id="path8"
       sodipodi:nodetypes="cccccccccc" />
    <path
       style="fill:#ffc378;fill-opacity:1;stroke:#303030;stroke-width:0.5;stroke-linecap:round;stroke-linejoin:round;stroke-dasharray:none;stroke-opacity:1;paint-order:markers stroke fill"
       d="M 26,26 H 21 L 17,30 16,32.720328 11,34 12,38 20,40 31,41 35,38 30,27 Z"
       id="path1"
       sodipodi:nodetypes="ccccccccccc" />
    <path
       style="fill:#ffc378;fill-opacity:1;stroke:#303030;stroke-width:0.5;stroke-linecap:round;stroke-linejoin:round;stroke-dasharray:none;stroke-opacity:1;paint-order:markers stroke fill"
       d="M 32,31 35,38 29,52 24,53 18,47 23,42 27,30 29,28 31,29 Z"
       id="path2"
       sodipodi:nodetypes="cccccccccc" />
    <path
       style="fill:#ffc378;fill-opacity:1;stroke:#303030;stroke-width:0.5;stroke-linecap:round;stroke-linejoin:round;stroke-dasharray:none;stroke-opacity:1;paint-order:markers stroke fill"
       d="M 67,51 65,64 72,79 H 78 L 80,77 77,63 V 56 L 73,51 Z"
       id="path6"
       sodipodi:nodetypes="ccccccccc" />
    <path
       style="fill:#ffc378;fill-opacity:1;stroke:#303030;stroke-width:0.5;stroke-linecap:round;stroke-linejoin:round;stroke-dasharray:none;stroke-opacity:1;paint-order:markers stroke fill"
       d="M 31,48 34,60 33,75 28,77 30,79 H 37 L 42,76 43,61 40,51 35,48 Z"
       id="path5"
       sodipodi:nodetypes="ccccccccccc" />
    <path
       style="fill:#311b00;fill-opacity:1;stroke:#303030;stroke-width:0.5;stroke-linecap:round;stroke-linejoin:round;stroke-dasharray:none;stroke-opacity:1;paint-order:markers stroke fill"
       d="M 11,34 12.422288,33.635988 13.629564,35 11.601537,36.40615 Z"
       id="path10"
       sodipodi:nodetypes="ccccc" />
    <path
       style="fill:#311b00;fill-opacity:1;stroke:#303030;stroke-width:0.5;stroke-linecap:round;stroke-linejoin:round;stroke-dasharray:none;stroke-opacity:1;paint-order:markers stroke fill"
       d="M 19,31.5 21,32.5 20.627057,33.106338 19,33.5 18,32.5 Z"
       id="path11"
       sodipodi:nodetypes="cccccc" />
    <path
       style="fill:none;fill-opacity:1;stroke:#303030;stroke-width:0.5;stroke-linecap:round;stroke-linejoin:round;stroke-dasharray:none;stroke-opacity:1;paint-order:markers stroke fill"
       d="M 11.865542,37.462169 16,38.323646 17,38"
       id="path12"
       sodipodi:nodetypes="ccc" />
  </g>
</svg>
