<?xml version="1.0" encoding="UTF-8" standalone="no"?>
<!-- Created with Inkscape (http://www.inkscape.org/) -->

<svg
   width="100"
   height="100"
   viewBox="0 0 100 100"
   version="1.1"
   id="svg1"
   inkscape:version="1.4.2 (ebf0e940, 2025-05-08)"
   sodipodi:docname="american_cocker_spaniel.svg"
   xmlns:inkscape="http://www.inkscape.org/namespaces/inkscape"
   xmlns:sodipodi="http://sodipodi.sourceforge.net/DTD/sodipodi-0.dtd"
   xmlns="http://www.w3.org/2000/svg"
   xmlns:svg="http://www.w3.org/2000/svg">
  <sodipodi:namedview
     id="namedview1"
     pagecolor="#505050"
     bordercolor="#eeeeee"
     borderopacity="1"
     inkscape:showpageshadow="0"
     inkscape:pageopacity="0"
     inkscape:pagecheckerboard="0"
     inkscape:deskcolor="#505050"
     inkscape:document-units="mm"
     showgrid="true"
     showguides="false"
     inkscape:lockguides="false"
     inkscape:zoom="4.7667575"
     inkscape:cx="50.243798"
     inkscape:cy="57.586315"
     inkscape:window-width="888"
     inkscape:window-height="890"
     inkscape:window-x="0"
     inkscape:window-y="38"
     inkscape:window-maximized="0"
     inkscape:current-layer="layer7">
    <inkscape:grid
       id="grid1"
       units="px"
       originx="100"
       originy="100"
       spacingx="0.2"
       spacingy="0.2"
       empcolor="#0099e5"
       empopacity="0.30196078"
       color="#0099e5"
       opacity="0.14901961"
       empspacing="5"
       enabled="true"
       visible="true" />
  </sodipodi:namedview>
  <defs
     id="defs1" />
  <g
     inkscape:groupmode="layer"
     id="layer5"
     inkscape:label="front_right_leg 1">
    <path
       style="display:inline;fill:#ffc378;fill-opacity:1;stroke:#523200;stroke-width:0.5;stroke-linecap:round;stroke-linejoin:round;stroke-dasharray:none;stroke-opacity:1;paint-order:markers stroke fill"
       d="M 26.54555,50.431944 C 25.588524,54.366664 27.930981,58.456909 27.886667,62.506179 27.812612,69.273045 26.545547,79.94674 25.204432,82.629905 24.127822,84.783876 21.181083,83.33898 19.839968,85.313068 19.129263,86.359208 21.354032,87.512193 22.522201,87.996232 23.76123,88.509632 26.545549,87.996232 26.545549,87.996232 27.350217,87.996232 29.496005,88.455035 29.227782,87.38177 30.032452,88.186719 31.373568,88.264548 31.910015,86.65465 32.446461,88.264548 34.055801,88.264548 34.592248,86.65465 35.128694,88.264548 37.006258,87.459599 37.274481,85.849701 37.810927,87.191283 39.152044,85.849701 39.152044,83.971486 40.761384,85.849701 41.566054,80.75169 41.29783,79.946741 42.1025,78.60516 41.649816,76.455867 41.29783,74.580415 41.29783,73.022118 40.291431,68.46015 39.956714,67.075511 39.956714,67.075511 39.312488,55.03109 35.933366,50.431944 34.389628,48.330845 31.770941,45.83513 29.227783,46.407199 27.655229,46.760936 26.926606,48.86527 26.54555,50.431944 Z"
       id="path7"
       sodipodi:nodetypes="aassacccccccssaaa"
       inkscape:label="path5_fill" />
  </g>
  <g
     inkscape:groupmode="layer"
     id="layer6"
     inkscape:label="back_right_leg"
     transform="translate(-6.0000001,-0.99999999)">
    <path
       style="display:inline;fill:#ffc378;fill-opacity:1;stroke:#523200;stroke-width:0.5;stroke-linecap:round;stroke-linejoin:round;stroke-dasharray:none;stroke-opacity:1;paint-order:markers stroke fill"
       d="M 69.461279,51.773527 C 66.779045,54.456689 66.80902,63.376103 66.779046,69.214089 66.356479,71.885827 66.779045,72.791639 68.046744,71.931526 67.631987,76.305537 68.956418,74.570949 69.594102,75.248444 69.647762,77.115565 70.030166,77.93529 70.741319,77.707617 70.224026,80.882913 71.03317,81.952528 72.363768,81.185501 72.621961,83.994336 73.044527,84.900149 73.631467,83.902939 73.670494,86.666074 74.09306,87.571888 74.899164,86.620376 75.165999,87.656669 73.620772,90.211201 76.166862,89.337814 H 81.263105 C 82.670443,89.400078 83.450904,89.053674 83.140668,87.996233 84.481784,89.337814 85.018231,86.118018 85.018231,86.118018 86.091124,87.4596 87.432241,84.776437 86.895794,82.898222 86.895794,82.898222 83.911383,72.952417 82.872444,67.872507 82.23885,64.77454 82.567139,61.435328 81.531328,58.481435 80.583839,55.779415 77.507979,51.773527 77.507979,51.773527 74.825746,48.419571 71.11287,50.121365 69.461279,51.773527 Z"
       id="path8"
       sodipodi:nodetypes="sccccccccccccssss"
       inkscape:label="path14_fill"
       transform="translate(6.0000001,0.99999999)" />
  </g>
  <g
     inkscape:groupmode="layer"
     id="layer12"
     inkscape:label="right_ear">
    <path
       style="display:inline;fill:#ffc378;fill-opacity:1;stroke:#303030;stroke-width:0.5;stroke-linecap:round;stroke-linejoin:round;stroke-dasharray:none;stroke-opacity:1;paint-order:markers stroke fill"
       d="M 26.54555,24.941892 C 26.54555,24.941892 29.173565,31.077794 29.227783,34.332964 29.258948,36.204011 28.691335,40.235922 28.691335,40.235922 29.095061,40.976664 28.959559,42.114136 28.154889,42.650769 28.423112,43.455718 28.065779,44.866724 27.065404,45.065616 27.333626,46.13888 26.009102,46.94383 24.936209,46.94383 24.579051,48.544341 24.509742,48.431139 23.134312,49.090361 22.819986,50.667024 21.904934,50.740928 20.644636,50.431943 19.730618,51.288634 18.608196,51.167647 17.69418,49.89531 16.297823,49.89531 15.548394,49.626994 14.973953,48.231235 13.67083,48.553728 12.258837,47.812911 12.222236,45.914172 11.793267,46.823286 10.481264,46.016636 10.452152,45.065617 10.38374,42.830695 13.475894,41.699204 14.475502,39.69929 15.816617,37.016126 17.157733,27.625054 19.839968,23.60031 20.541341,22.547887 21.274111,21.119754 22.522201,20.917147 23.508903,20.756971 24.497604,21.551653 25.204434,22.258728 25.911264,22.965804 26.54555,24.941892 26.54555,24.941892 Z"
       id="path6"
       sodipodi:nodetypes="cscccccccccsssaac" />
  </g>
  <g
     inkscape:label="tail"
     inkscape:groupmode="layer"
     id="layer1"
     style="display:inline">
    <path
       style="display:inline;fill:#ffc378;fill-opacity:1;stroke:#303030;stroke-width:0.5;stroke-linecap:round;stroke-linejoin:round;stroke-dasharray:none;stroke-opacity:1;paint-order:markers stroke fill"
       d="M 89.04158,51.236893 C 89.276603,50.856487 90.002423,51.001789 90.382697,51.236893 92.933652,52.814018 94.406046,57.408169 94.406046,59.286383 94.406046,59.742434 93.430092,59.291097 93.06493,59.018067 91.527305,57.868396 91.259033,55.628616 90.382697,53.920056 89.92637,53.030374 88.516055,52.087507 89.04158,51.236893 Z"
       id="path9"
       sodipodi:nodetypes="aasaaa" />
  </g>
  <g
     inkscape:groupmode="layer"
     id="layer11"
     inkscape:label="body">
    <path
       style="display:inline;fill:#ffc378;fill-opacity:1;stroke:#303030;stroke-width:0.5;stroke-linecap:round;stroke-linejoin:round;stroke-dasharray:none;stroke-opacity:1;paint-order:markers stroke fill"
       d="M 15.81662,38.35771 C 16.801498,46.038065 23.163957,60.607739 24.455902,57.754714 24.455902,57.754714 27.886667,64.411202 29.227785,62.506181 31.015938,65.636537 32.804093,66.083731 34.592249,63.847762 36.380404,66.978119 38.16856,67.425313 39.956715,65.189343 41.74487,68.319701 43.533026,68.766894 45.321181,66.530924 46.216807,68.282497 49.796217,69.549676 50.685647,67.872506 52.160092,69.456673 53.505857,70.089966 54.708997,68.617405 55.620119,69.99696 57.03455,70.519244 57.908485,69.214088 58.587059,70.434888 59.830601,70.340583 61.414579,69.214088 62.457781,70.258429 63.460566,70.188428 64.096812,69.214088 65.217964,70.112349 65.929198,69.471191 66.779045,68.655082 67.650147,69.396633 68.72583,69.083726 69.461278,68.409139 70.240763,69.393566 71.669444,68.292445 72.411734,67.872506 73.662798,68.400668 75.108407,68.5737 75.630414,67.738349 76.694294,68.178884 77.750969,68.93579 78.849095,67.872507 78.849095,67.872507 85.409589,67.945078 88.23691,66.530926 89.933304,65.682434 91.914017,64.37158 92.26026,62.506181 93.064027,58.175846 91.213116,51.295709 86.895794,50.431945 73.484628,47.748781 52.668169,45.627132 37.274484,38.35771 33.231904,36.448666 30.876078,31.41807 26.545552,30.30822 23.483407,29.523437 19.454087,29.476732 17.157736,31.649802 15.501814,33.216825 15.526592,36.095992 15.81662,38.35771 Z"
       id="path3"
       sodipodi:nodetypes="scccccccccccccccaasaaas" />
  </g>
  <g
     inkscape:groupmode="layer"
     id="layer10"
     inkscape:label="head"
     style="display:inline">
    <path
       style="display:inline;fill:#ffc378;fill-opacity:1;stroke:#303030;stroke-width:0.5;stroke-linecap:round;stroke-linejoin:round;stroke-dasharray:none;stroke-opacity:1;paint-order:markers stroke fill"
       d="M 22.522202,19.575566 C 20.247147,19.433878 17.897552,19.986419 15.81662,20.917148 13.776097,21.829803 11.786611,23.148141 10.452154,24.941893 9.6786203,25.981662 9.6474823,27.088422 9.111037,28.591435 7.5016959,28.966637 3.9668078,29.058854 2.4054545,30.30822 2.4054545,30.30822 2.4262083,34.388027 3.746571,35.674547 6.698992,38.551291 15.816618,38.357709 15.816618,38.357709 15.816618,38.357709 24.909574,40.939593 29.227785,39.699292 31.18858,39.136101 34.066793,35.951108 34.066793,35.951108 34.066793,35.951108 32.197497,29.298611 30.568901,26.283475 29.506353,24.316303 28.358835,22.224542 26.545552,20.917148 25.398731,20.090279 23.933132,19.663438 22.522202,19.575566 Z"
       id="path1"
       sodipodi:nodetypes="aaaccacacaaa" />
  </g>
  <g
     inkscape:groupmode="layer"
     id="layer4"
     inkscape:label="left_ear"
     style="display:inline">
    <path
       style="display:inline;fill:#ffc378;fill-opacity:1;stroke:#303030;stroke-width:0.5;stroke-linecap:round;stroke-linejoin:round;stroke-dasharray:none;stroke-opacity:1;paint-order:markers stroke fill"
       d="M 30.568901,26.283475 C 30.568901,26.283475 33.196915,32.419377 33.251134,35.674547 33.282299,37.545594 32.714686,41.577505 32.714686,41.577505 33.118412,42.318247 32.982909,43.455719 32.178239,43.992352 32.446463,44.797301 32.08913,46.208307 31.088755,46.407199 31.356977,47.480463 30.032453,48.285413 28.95956,48.285413 28.602402,49.885924 28.533093,49.772722 27.157663,50.431944 26.843337,52.008607 25.928285,52.082511 24.667987,51.773526 23.753969,52.630217 22.631547,52.50923 21.717531,51.236893 20.321174,51.236893 19.571744,50.968577 18.997304,49.572818 17.694181,49.895311 16.282188,49.154494 16.245586,47.255755 15.816618,48.164869 14.504615,47.358219 14.475503,46.4072 14.407091,44.172278 17.499245,43.040787 18.498853,41.040873 19.839968,38.357709 21.181084,28.966637 23.863319,24.941893 24.564692,23.88947 25.297462,22.461337 26.545552,22.25873 27.532254,22.098554 28.520954,22.893236 29.227785,23.600311 29.934615,24.307387 30.568901,26.283475 30.568901,26.283475 Z"
       id="path2"
       sodipodi:nodetypes="cscccccccccsssaac" />
  </g>
  <g
     inkscape:groupmode="layer"
     id="layer3"
     inkscape:label="back_left_leg"
     style="display:inline">
    <path
       style="display:inline;fill:#ffc378;fill-opacity:1;stroke:#523200;stroke-width:0.5;stroke-linecap:round;stroke-linejoin:round;stroke-dasharray:none;stroke-opacity:1;paint-order:markers stroke fill"
       d="M 80.190212,53.115107 C 77.507977,55.798269 77.537952,64.717684 77.507978,70.555669 77.085411,73.227408 77.507977,74.13322 78.775676,73.273106 78.360919,77.647117 79.68535,75.91253 80.323034,76.590025 80.376694,78.457146 80.759098,79.276871 81.470251,79.049198 80.952958,82.224494 81.762102,83.294108 83.0927,82.527082 83.350893,85.335917 83.773459,86.24173 84.360399,85.24452 84.399426,88.007655 84.821992,88.913468 85.628096,87.961957 85.894931,88.99825 84.349704,91.552782 86.895794,90.679395 H 91.992037 C 93.399375,90.741659 94.179836,90.395255 93.8696,89.337813 95.210716,90.679395 95.747163,87.459599 95.747163,87.459599 96.820056,88.801181 98.161173,86.118017 97.624726,84.239803 97.624726,84.239803 94.640315,74.293998 93.601376,69.214088 92.967782,66.116121 93.296071,62.776909 92.26026,59.823016 91.312771,57.120995 88.23691,53.115107 88.23691,53.115107 85.554677,49.761152 81.841802,51.462945 80.190212,53.115107 Z"
       id="path14"
       sodipodi:nodetypes="sccccccccccccssss"
       inkscape:label="path14_fill" />
  </g>
  <g
     inkscape:groupmode="layer"
     id="layer2"
     inkscape:label="front_left_leg"
     style="display:inline">
    <path
       style="display:inline;fill:#ffc378;fill-opacity:1;stroke:#523200;stroke-width:0.5;stroke-linecap:round;stroke-linejoin:round;stroke-dasharray:none;stroke-opacity:1;paint-order:markers stroke fill"
       d="M 31.910018,53.115109 C 30.952991,57.049828 33.295449,61.140073 33.251134,65.189344 33.177079,71.95621 31.910015,82.629905 30.5689,85.313069 29.492289,87.467041 26.54555,86.022145 25.204435,87.996233 24.49373,89.042373 26.718499,90.195358 27.886668,90.679396 29.125697,91.192797 31.910016,90.679396 31.910016,90.679396 32.714685,90.679396 34.860472,91.1382 34.592249,90.064934 35.396919,90.869883 36.738036,90.947713 37.274482,89.337815 37.810929,90.947713 39.420269,90.947713 39.956715,89.337815 40.493162,90.947713 42.370725,90.142764 42.638948,88.532866 43.175395,89.874447 44.516511,88.532866 44.516511,86.654651 46.125851,88.532866 46.930521,83.434855 46.662298,82.629906 47.466968,81.288324 47.014283,79.139031 46.662298,77.263579 46.662298,75.705283 45.655898,71.143314 45.321181,69.758676 45.321181,69.758676 44.676956,57.714255 41.297833,53.115109 39.754095,51.014009 37.135408,48.518294 34.592251,49.090364 33.019696,49.444101 32.291073,51.548435 31.910018,53.115109 Z"
       id="path5"
       sodipodi:nodetypes="aassacccccccssaaa"
       inkscape:label="path5_fill" />
  </g>
  <g
     inkscape:groupmode="layer"
     id="layer9"
     inkscape:label="mouth">
    <path
       style="display:inline;fill:none;fill-opacity:1;stroke:#303030;stroke-width:0.5;stroke-linecap:round;stroke-linejoin:round;stroke-dasharray:none;stroke-opacity:1;paint-order:markers stroke fill"
       d="M 3.5662472,34.953002 C 5.4136579,35.34234 7.2082931,35.985056 9.111037,36.108744 9.5780111,36.025629 10.056072,35.976781 10.452154,35.674547"
       id="path12"
       sodipodi:nodetypes="ccc" />
  </g>
  <g
     inkscape:groupmode="layer"
     id="layer8"
     inkscape:label="nose">
    <path
       style="display:inline;fill:#311b00;fill-opacity:1;stroke:#303030;stroke-width:0.5;stroke-linecap:round;stroke-linejoin:round;stroke-dasharray:none;stroke-opacity:1;paint-order:markers stroke fill"
       d="M 2.4054545,30.30822 C 2.4054545,30.30822 3.6671997,29.702333 4.3129084,29.819868 5.0524564,29.954482 6.1605794,31.113167 6.1605794,31.113167 5.0876862,31.918116 4.0127303,32.446497 3.2101231,32.991382 2.9412104,32.480188 2.6743645,31.461446 2.4054545,30.30822 Z"
       id="path10"
       sodipodi:nodetypes="caccc" />
  </g>
  <g
     inkscape:groupmode="layer"
     id="layer7"
     inkscape:label="eye">
    <circle
       style="display:none;fill:#311b00;fill-opacity:1;stroke:none;stroke-width:1.42958;stroke-linecap:round;stroke-linejoin:round;stroke-dasharray:none;stroke-opacity:1;paint-order:markers stroke fill"
       id="path15"
       cx="7.429574"
       cy="23.999998"
       r="1.4295756" />
    <path
       style="display:inline;fill:#311b00;fill-opacity:1;stroke:#303030;stroke-width:0.5;stroke-linecap:round;stroke-linejoin:round;stroke-dasharray:none;stroke-opacity:1;paint-order:markers stroke fill"
       d="M 13.134385,27.625055 C 14.068218,28.047244 14.060131,28.289432 15.548395,28.966637 L 15.011948,29.771586 C 14.30963,30.051157 13.868779,30.161267 13.134385,30.308218 12.50853,30.039902 12.061492,29.592709 11.793269,28.966637 12.061492,28.340565 12.50853,27.893371 13.134385,27.625055 Z"
       id="path11"
       sodipodi:nodetypes="cccccc" />
  </g>
</svg>
