<?xml version="1.0" encoding="UTF-8" standalone="no"?>
<!-- Created with Inkscape (http://www.inkscape.org/) -->

<svg
   width="100"
   height="100"
   viewBox="0 0 100 100"
   version="1.1"
   id="svg1"
   inkscape:version="1.4.2 (ebf0e940, 2025-05-08)"
   sodipodi:docname="american_cocker_spaniel.svg"
   xmlns:inkscape="http://www.inkscape.org/namespaces/inkscape"
   xmlns:sodipodi="http://sodipodi.sourceforge.net/DTD/sodipodi-0.dtd"
   xmlns="http://www.w3.org/2000/svg"
   xmlns:svg="http://www.w3.org/2000/svg">
  <sodipodi:namedview
     id="namedview1"
     pagecolor="#505050"
     bordercolor="#eeeeee"
     borderopacity="1"
     inkscape:showpageshadow="0"
     inkscape:pageopacity="0"
     inkscape:pagecheckerboard="0"
     inkscape:deskcolor="#505050"
     inkscape:document-units="mm"
     showgrid="true"
     showguides="false"
     inkscape:lockguides="false"
     inkscape:zoom="8.2374315"
     inkscape:cx="38.664965"
     inkscape:cy="56.995922"
     inkscape:window-width="1472"
     inkscape:window-height="890"
     inkscape:window-x="-1"
     inkscape:window-y="38"
     inkscape:window-maximized="0"
     inkscape:current-layer="layer7">
    <inkscape:grid
       id="grid1"
       units="px"
       originx="100"
       originy="100"
       spacingx="0.2"
       spacingy="0.2"
       empcolor="#0099e5"
       empopacity="0.30196078"
       color="#0099e5"
       opacity="0.14901961"
       empspacing="5"
       enabled="true"
       visible="true" />
  </sodipodi:namedview>
  <defs
     id="defs1" />
  <g
     inkscape:groupmode="layer"
     id="layer5"
     inkscape:label="front_right_leg 1" />
  <g
     inkscape:groupmode="layer"
     id="layer6"
     inkscape:label="back_right_leg"
     transform="translate(-6.0000001,-0.99999999)" />
  <g
     inkscape:groupmode="layer"
     id="layer12"
     inkscape:label="right_ear" />
  <g
     inkscape:label="tail"
     inkscape:groupmode="layer"
     id="layer1"
     style="display:inline" />
  <g
     inkscape:groupmode="layer"
     id="layer11"
     inkscape:label="body" />
  <g
     inkscape:groupmode="layer"
     id="layer10"
     inkscape:label="head" />
  <g
     inkscape:groupmode="layer"
     id="layer4"
     inkscape:label="left_ear"
     style="display:inline" />
  <g
     inkscape:groupmode="layer"
     id="layer3"
     inkscape:label="back_left_leg"
     style="display:inline" />
  <g
     inkscape:groupmode="layer"
     id="layer2"
     inkscape:label="front_left_leg"
     style="display:inline" />
  <g
     inkscape:groupmode="layer"
     id="layer9"
     inkscape:label="mouth" />
  <g
     inkscape:groupmode="layer"
     id="layer8"
     inkscape:label="nose" />
  <g
     inkscape:groupmode="layer"
     id="layer7"
     inkscape:label="eye">
    <circle
       style="display:none;fill:#311b00;fill-opacity:1;stroke:none;stroke-width:1.42958;stroke-linecap:round;stroke-linejoin:round;stroke-dasharray:none;stroke-opacity:1;paint-order:markers stroke fill"
       id="path15"
       cx="19.429575"
       cy="33"
       r="1.4295756" />
    <g
       id="g13"
       transform="matrix(1.3411165,0,0,1.3415817,-12.346827,-15.305558)"
       style="stroke-width:0.745518">
      <path
         style="display:inline;fill:#ffc378;fill-opacity:1;stroke:#523200;stroke-width:0.372759;stroke-linecap:round;stroke-linejoin:round;stroke-dasharray:none;stroke-opacity:1;paint-order:markers stroke fill"
         d="M 28.999999,48.999999 C 28.286395,51.932895 30.033042,54.981718 29.999999,57.999999 29.94478,63.043945 28.999997,70.999998 27.999998,72.999999 27.197226,74.605545 24.999998,73.528536 23.999999,74.999999 23.470064,75.77978 25.128957,76.639202 25.999999,76.999999 26.923878,77.382682 28.999998,76.999999 28.999998,76.999999 29.599997,76.999999 31.199998,77.341986 30.999998,76.541986 31.599998,77.141986 32.599998,77.199999 32.999998,75.999999 33.399998,77.199999 34.599998,77.199999 34.999998,75.999999 35.399998,77.199999 36.799998,76.599999 36.999998,75.399999 37.399998,76.399999 38.399998,75.399999 38.399998,73.999999 39.599998,75.399999 40.199998,71.599999 39.999998,70.999999 40.599998,69.999999 40.262455,68.39794 39.999998,66.999999 39.999998,65.838462 39.249579,62.438022 38.999998,61.405928 38.999998,61.405928 38.519633,52.428151 35.999999,48.999999 34.848915,47.433863 32.896298,45.573585 30.999999,45.999999 29.827428,46.263671 29.284132,47.832218 28.999999,48.999999 Z"
         id="path7"
         sodipodi:nodetypes="aassacccccccssaaa"
         inkscape:label="path5_fill" />
      <path
         style="display:inline;fill:#ffc378;fill-opacity:1;stroke:#523200;stroke-width:0.372759;stroke-linecap:round;stroke-linejoin:round;stroke-dasharray:none;stroke-opacity:1;paint-order:markers stroke fill"
         d="M 67,51 C 64.999999,52.999999 65.02235,59.648431 65,64 64.684914,65.991484 64.999999,66.666666 65.945255,66.025547 65.635993,69.285886 66.623551,67.992944 67.099039,68.497941 67.13905,69.889672 67.424189,70.500686 67.954458,70.330981 67.56874,72.697811 68.172076,73.49509 69.164233,72.923357 69.356754,75.017031 69.671839,75.692214 70.109489,74.948905 70.13859,77.008515 70.453675,77.683698 71.054744,76.974452 71.253709,77.746893 70.101515,79.651013 72,79 H 75.8 C 76.849378,79.046411 77.431327,78.788205 77.2,78 78.2,79 78.6,76.6 78.6,76.6 79.4,77.6 80.4,75.6 80,74.2 80,74.2 77.774682,66.786508 77,63 76.527562,60.69081 76.77235,58.201799 76,56 75.293507,53.985944 73,51 73,51 71,48.499999 68.231504,49.768497 67,51 Z"
         id="path8"
         sodipodi:nodetypes="sccccccccccccssss"
         inkscape:label="path14_fill"
         transform="translate(-6.0000001,-0.99999999)" />
      <path
         style="display:inline;fill:#ffc378;fill-opacity:1;stroke:#303030;stroke-width:0.372759;stroke-linecap:round;stroke-linejoin:round;stroke-dasharray:none;stroke-opacity:1;paint-order:markers stroke fill"
         d="M 28.999999,29.999999 C 28.999999,29.999999 30.959571,34.573632 30.999999,36.999999 31.023237,38.394657 30.599998,41.399998 30.599998,41.399998 30.901035,41.952139 30.799998,42.799998 30.199998,43.199998 30.399998,43.799998 30.133554,44.851746 29.387627,44.999998 29.587626,45.799997 28.599998,46.399998 27.799998,46.399998 27.533684,47.593001 27.482004,47.508621 26.456418,47.999998 26.222042,49.175225 25.539736,49.230312 24.599998,48.999998 23.918463,49.638566 23.081532,49.548384 22.399998,48.599998 21.358808,48.599998 20.799998,48.399998 20.371668,47.359615 19.399998,47.599998 18.347149,47.047801 18.319857,45.632502 17.999998,46.310146 17.021706,45.708878 16.999999,44.999999 16.948988,43.334113 19.254644,42.490712 19.999999,40.999999 20.999998,38.999998 21.999998,31.999998 23.999999,28.999999 24.522976,28.215535 25.069364,27.15102 25.999999,26.999999 26.735731,26.880606 27.472953,27.472953 27.999999,27.999999 28.527045,28.527045 28.999999,29.999999 28.999999,29.999999 Z"
         id="path6"
         sodipodi:nodetypes="cscccccccccsssaac" />
      <path
         style="display:inline;fill:#ffc378;fill-opacity:1;stroke:#303030;stroke-width:0.372759;stroke-linecap:round;stroke-linejoin:round;stroke-dasharray:none;stroke-opacity:1;paint-order:markers stroke fill"
         d="M 75.6,49.599999 C 75.775244,49.316449 76.31645,49.424755 76.6,49.599999 78.502113,50.77557 79.6,54.199999 79.6,55.599999 79.6,55.939934 78.872282,55.603513 78.6,55.399999 77.453474,54.543047 77.253438,52.87354 76.6,51.599999 76.259741,50.93684 75.208143,50.234037 75.6,49.599999 Z"
         id="path9"
         sodipodi:nodetypes="aasaaa" />
      <path
         style="display:inline;fill:#ffc378;fill-opacity:1;stroke:#303030;stroke-width:0.372759;stroke-linecap:round;stroke-linejoin:round;stroke-dasharray:none;stroke-opacity:1;paint-order:markers stroke fill"
         d="M 21,40 C 21.734372,45.724851 26.478523,56.584923 27.441858,54.45831 27.441858,54.45831 29.999999,59.419982 31,58 32.333332,60.333333 33.666665,60.666666 34.999999,59 36.333332,61.333333 37.666666,61.666666 38.999999,59.999999 40.333332,62.333333 41.666666,62.666666 42.999999,60.999999 43.66782,62.305602 46.336798,63.250143 46.999999,61.999999 48.099415,63.180819 49.102881,63.652869 49.999999,62.555238 50.679375,63.583543 51.734042,63.972848 52.385689,62.999999 52.891666,63.90997 53.81891,63.839676 54.999999,62.999999 55.77786,63.778439 56.525584,63.726261 56.999999,62.999999 57.835983,63.669553 58.366313,63.191641 58.999999,62.583322 59.649534,63.136066 60.451614,62.902829 60.999999,62.399999 61.58122,63.13378 62.646512,62.313017 63.199999,61.999999 64.132851,62.393685 65.210766,62.522661 65.599999,61.9 66.393278,62.22837 67.181185,62.792559 68,62 68,62 72.891815,62.054093 75,61 76.264911,60.367544 77.741825,59.390448 78,58 78.599327,54.772217 77.2192,49.64384 74,49 63.999999,46.999999 48.478261,45.418546 37,40 33.985661,38.57702 32.229046,34.82727 29,34 26.71672,33.415032 23.712268,33.380218 22,35 20.765266,36.168042 20.783742,38.314141 21,40 Z"
         id="path3"
         sodipodi:nodetypes="scccccccccccccccaasaaas" />
      <path
         style="display:inline;fill:#ffc378;fill-opacity:1;stroke:#303030;stroke-width:0.372759;stroke-linecap:round;stroke-linejoin:round;stroke-dasharray:none;stroke-opacity:1;paint-order:markers stroke fill"
         d="M 26,26 C 24.303611,25.894387 22.551642,26.306245 21,27 19.47849,27.680283 17.995035,28.662957 17,30 16.423217,30.775032 16.399999,31.599999 16,32.720328 14.799999,32.999999 12.164219,33.068737 11,34 11,34 11.015475,37.041043 12,38 14.201465,40.144293 20.999999,39.999999 20.999999,39.999999 20.999999,39.999999 27.780138,41.924507 31,41 32.462062,40.580204 34.608194,38.206146 34.608194,38.206146 34.608194,38.206146 33.214358,33.247449 32,31 31.207714,29.533692 30.35207,27.974517 29,27 28.144876,26.383661 27.052056,26.065499 26,26 Z"
         id="path1"
         sodipodi:nodetypes="aaaccacacaaa" />
      <path
         style="display:inline;fill:#ffc378;fill-opacity:1;stroke:#303030;stroke-width:0.372759;stroke-linecap:round;stroke-linejoin:round;stroke-dasharray:none;stroke-opacity:1;paint-order:markers stroke fill"
         d="M 32,31 C 32,31 33.959572,35.573633 34,38 34.023238,39.394658 33.599999,42.399999 33.599999,42.399999 33.901036,42.95214 33.799999,43.799999 33.199999,44.199999 33.399999,44.799999 33.133555,45.851747 32.387628,45.999999 32.587627,46.799998 31.599999,47.399999 30.799999,47.399999 30.533685,48.593002 30.482005,48.508622 29.456419,48.999999 29.222043,50.175226 28.539737,50.230313 27.599999,49.999999 26.918464,50.638567 26.081533,50.548385 25.399999,49.599999 24.358809,49.599999 23.799999,49.399999 23.371669,48.359616 22.399999,48.599999 21.34715,48.047802 21.319858,46.632503 20.999999,47.310147 20.021707,46.708879 20,46 19.948989,44.334114 22.254645,43.490713 23,42 23.999999,39.999999 24.999999,32.999999 27,30 27.522977,29.215536 28.069365,28.151021 29,28 29.735732,27.880607 30.472954,28.472954 31,29 31.527046,29.527046 32,31 32,31 Z"
         id="path2"
         sodipodi:nodetypes="cscccccccccsssaac" />
      <path
         style="display:inline;fill:#ffc378;fill-opacity:1;stroke:#523200;stroke-width:0.372759;stroke-linecap:round;stroke-linejoin:round;stroke-dasharray:none;stroke-opacity:1;paint-order:markers stroke fill"
         d="M 69,50.999999 C 66.999999,52.999998 67.02235,59.64843 67,63.999999 66.684914,65.991483 66.999999,66.666665 67.945255,66.025546 67.635993,69.285885 68.623551,67.992943 69.099039,68.49794 69.13905,69.889671 69.424189,70.500685 69.954458,70.33098 69.56874,72.69781 70.172076,73.495089 71.164233,72.923356 71.356754,75.01703 71.671839,75.692213 72.109489,74.948904 72.13859,77.008514 72.453675,77.683697 73.054744,76.974451 73.253709,77.746892 72.101515,79.651012 74,78.999999 H 77.8 C 78.849378,79.04641 79.431327,78.788204 79.2,77.999999 80.2,78.999999 80.6,76.599999 80.6,76.599999 81.4,77.599999 82.4,75.599999 82,74.199999 82,74.199999 79.774682,66.786507 79,62.999999 78.527562,60.690809 78.77235,58.201798 78,55.999999 77.293507,53.985943 75,50.999999 75,50.999999 73,48.499998 70.231504,49.768496 69,50.999999 Z"
         id="path14"
         sodipodi:nodetypes="sccccccccccccssss"
         inkscape:label="path14_fill" />
      <path
         style="display:inline;fill:#ffc378;fill-opacity:1;stroke:#523200;stroke-width:0.372759;stroke-linecap:round;stroke-linejoin:round;stroke-dasharray:none;stroke-opacity:1;paint-order:markers stroke fill"
         d="M 33,51 C 32.286396,53.932896 34.033043,56.981719 34,60 33.944781,65.043946 32.999998,72.999999 31.999999,75 31.197227,76.605546 28.999999,75.528537 28,77 27.470065,77.779781 29.128958,78.639203 30,79 30.923879,79.382683 32.999999,79 32.999999,79 33.599998,79 35.199999,79.341987 34.999999,78.541987 35.599999,79.141987 36.599999,79.2 36.999999,78 37.399999,79.2 38.599999,79.2 38.999999,78 39.399999,79.2 40.799999,78.6 40.999999,77.4 41.399999,78.4 42.399999,77.4 42.399999,76 43.599999,77.4 44.199999,73.6 43.999999,73 44.599999,72 44.262456,70.397941 43.999999,69 43.999999,67.838463 43.24958,64.438023 42.999999,63.405929 42.999999,63.405929 42.519634,54.428152 40,51 38.848916,49.433864 36.896299,47.573586 35,48 33.827429,48.263672 33.284133,49.832219 33,51 Z"
         id="path5"
         sodipodi:nodetypes="aassacccccccssaaa"
         inkscape:label="path5_fill" />
      <path
         style="display:inline;fill:none;fill-opacity:1;stroke:#303030;stroke-width:0.372759;stroke-linecap:round;stroke-linejoin:round;stroke-dasharray:none;stroke-opacity:1;paint-order:markers stroke fill"
         d="M 11.865542,37.462169 C 13.243059,37.752377 14.581224,38.23145 16,38.323646 16.348198,38.261693 16.704663,38.225282 17,38"
         id="path12"
         sodipodi:nodetypes="ccc" />
      <path
         style="display:inline;fill:#311b00;fill-opacity:1;stroke:#303030;stroke-width:0.372759;stroke-linecap:round;stroke-linejoin:round;stroke-dasharray:none;stroke-opacity:1;paint-order:markers stroke fill"
         d="M 11,34 C 11,34 11.940817,33.548379 12.422288,33.635988 12.97373,33.736328 13.799999,34.599999 13.799999,34.599999 12.999999,35.199999 12.198461,35.593848 11.599999,35.999999 11.399485,35.618961 11.200512,34.859602 11,34 Z"
         id="path10"
         sodipodi:nodetypes="caccc" />
      <path
         style="display:inline;fill:#311b00;fill-opacity:1;stroke:#303030;stroke-width:0.372759;stroke-linecap:round;stroke-linejoin:round;stroke-dasharray:none;stroke-opacity:1;paint-order:markers stroke fill"
         d="M 18.999999,31.999999 C 19.696309,32.314694 19.690279,32.495218 20.799999,32.999999 L 20.399999,33.599999 C 19.876317,33.808388 19.547598,33.890463 18.999999,33.999999 18.533332,33.799999 18.199999,33.466666 17.999999,32.999999 18.199999,32.533332 18.533332,32.199999 18.999999,31.999999 Z"
         id="path11"
         sodipodi:nodetypes="cccccc" />
    </g>
  </g>
</svg>
